<?xml version="1.0" encoding="UTF-8"?>
<!DOCTYPE svg PUBLIC "-//W3C//DTD SVG 1.1//EN" "http://www.w3.org/Graphics/SVG/1.1/DTD/svg11.dtd">
<svg xmlns="http://www.w3.org/2000/svg" version="1.1" width="130px" height="40px" style="shape-rendering:geometricPrecision; text-rendering:geometricPrecision; image-rendering:optimizeQuality; fill-rule:evenodd; clip-rule:evenodd" xmlns:xlink="http://www.w3.org/1999/xlink">
<g><path style="opacity:0.465" fill="#e4e1e1" d="M 19.5,-0.5 C 49.5,-0.5 79.5,-0.5 109.5,-0.5C 109.5,12.8333 109.5,26.1667 109.5,39.5C 79.5,39.5 49.5,39.5 19.5,39.5C 19.5,26.1667 19.5,12.8333 19.5,-0.5 Z M 24.5,2.5 C 24.6036,4.70281 25.2702,6.70281 26.5,8.5C 27.5,8.5 28.5,8.5 29.5,8.5C 29.1796,11.8984 29.513,15.2317 30.5,18.5C 32.0709,19.3094 33.7376,19.6427 35.5,19.5C 37.3236,16.1538 37.9903,12.4872 37.5,8.5C 38.5,8.5 39.5,8.5 40.5,8.5C 40.5,10.1667 40.5,11.8333 40.5,13.5C 41.6737,14.5137 42.3404,15.847 42.5,17.5C 41.5207,18.7653 40.5207,20.0986 39.5,21.5C 39.6236,22.1067 39.9569,22.44 40.5,22.5C 40.2417,26.3669 40.9084,30.0336 42.5,33.5C 41.6676,34.3285 42.001,35.1618 43.5,36C 44.4368,36.6917 45.1034,36.525 45.5,35.5C 47.2161,35.6287 48.8828,35.962 50.5,36.5C 52.7569,37.8026 54.5902,37.136 56,34.5C 56.8382,35.999 57.6715,36.3324 58.5,35.5C 60.5,35.8333 62.5,36.1667 64.5,36.5C 65.1667,37.8333 65.8333,37.8333 66.5,36.5C 67.1174,36.6107 67.6174,36.944 68,37.5C 68.2784,36.5842 68.7784,35.9175 69.5,35.5C 69.7822,36.7777 70.4489,37.7777 71.5,38.5C 54.8333,38.5 38.1667,38.5 21.5,38.5C 21.5,25.8333 21.5,13.1667 21.5,0.5C 22.9778,0.237978 24.3112,0.571312 25.5,1.5C 25.3764,2.10667 25.0431,2.44001 24.5,2.5 Z M 40.5,1.5 C 44.6134,-0.0333893 45.1134,0.633277 42,3.5C 41.7216,2.5842 41.2216,1.91753 40.5,1.5 Z M 52.5,1.5 C 53.6009,0.401682 54.9343,0.235015 56.5,1C 55.8742,1.75044 55.3742,2.58377 55,3.5C 54.2917,2.61947 53.4584,1.9528 52.5,1.5 Z M 71.5,0.5 C 70.8333,1.5 70.1667,2.5 69.5,3.5C 65.4822,0.929435 66.1488,-0.070565 71.5,0.5 Z M 73.5,0.5 C 79.8333,0.5 86.1667,0.5 92.5,0.5C 90.3432,1.40666 88.0098,2.07332 85.5,2.5C 85.5654,2.06178 85.3988,1.72845 85,1.5C 84.1667,2.33333 83.3333,3.16667 82.5,4C 82.7284,4.39877 83.0618,4.56544 83.5,4.5C 83.0269,5.90632 82.0269,6.57298 80.5,6.5C 79.7029,5.52176 79.0362,5.85509 78.5,7.5C 78.8555,8.5223 79.5222,9.18897 80.5,9.5C 80.5,10.1667 80.8333,10.5 81.5,10.5C 81.1583,11.3382 80.4916,11.6716 79.5,11.5C 78.9222,10.453 78.2555,10.6197 77.5,12C 77.7284,12.3988 78.0618,12.5654 78.5,12.5C 78.5,13.8333 79.1667,14.5 80.5,14.5C 80.3829,18.8097 80.3829,22.8097 80.5,26.5C 82.22,29.8892 82.8866,33.5559 82.5,37.5C 87.8437,37.666 93.1771,37.4994 98.5,37C 99.3734,35.955 100.373,35.1217 101.5,34.5C 101.483,32.4352 101.15,30.4352 100.5,28.5C 101.833,28.1667 101.833,27.8333 100.5,27.5C 100.5,25.1667 100.5,22.8333 100.5,20.5C 98.901,20.7678 97.5676,20.4345 96.5,19.5C 96.1667,19.5 95.8333,19.5 95.5,19.5C 95.67,18.1779 95.3366,17.0113 94.5,16C 95.4158,15.7216 96.0825,15.2216 96.5,14.5C 99.1161,13.5202 101.449,12.0202 103.5,10C 103.272,9.60123 102.938,9.43456 102.5,9.5C 102.5,8.5 102.5,7.5 102.5,6.5C 101.127,6.65668 99.7932,6.49001 98.5,6C 99.8333,5.33333 99.8333,4.66667 98.5,4C 97.552,3.51722 96.552,3.35055 95.5,3.5C 95.5,2.5 95.5,1.5 95.5,0.5C 99.5,0.5 103.5,0.5 107.5,0.5C 107.5,13.1667 107.5,25.8333 107.5,38.5C 96.1667,38.5 84.8333,38.5 73.5,38.5C 74.1098,37.609 74.4431,36.609 74.5,35.5C 73.561,23.8614 73.2276,12.1948 73.5,0.5 Z M 27.5,2.5 C 31.5,2.5 35.5,2.5 39.5,2.5C 39.3781,6.8383 39.0447,7.17163 38.5,3.5C 35.1501,3.33499 31.8168,3.50166 28.5,4C 29.4162,4.37424 30.2496,4.87424 31,5.5C 33.0932,4.75387 35.0932,4.42054 37,4.5C 35.8252,8.26212 35.3252,12.2621 35.5,16.5C 34.1779,16.33 33.0113,16.6634 32,17.5C 31.8253,13.789 31.3253,10.1224 30.5,6.5C 29.5745,5.35945 28.7412,5.35945 28,6.5C 27.51,5.20677 27.3433,3.87344 27.5,2.5 Z M 51.5,3.5 C 49.4727,3.33788 47.4727,3.50454 45.5,4C 44.1602,6.17852 44.4935,6.67852 46.5,5.5C 45.7814,7.76375 45.448,10.0971 45.5,12.5C 44.596,13.209 44.2627,14.209 44.5,15.5C 43.3547,11.6888 43.1881,7.68879 44,3.5C 46.6047,2.18575 49.1047,2.18575 51.5,3.5 Z M 66.5,15.5 C 66.5,16.1667 66.1667,16.5 65.5,16.5C 64.8333,16.5 64.1667,16.5 63.5,16.5C 61.5,16.5 59.5,16.5 57.5,16.5C 57.5,11.8333 57.5,7.16667 57.5,2.5C 60.7766,2.21614 63.9433,2.54948 67,3.5C 66.6554,7.64557 66.4887,11.6456 66.5,15.5 Z M 51.5,4.5 C 51.5,4.16667 51.5,3.83333 51.5,3.5C 53.2252,3.84254 53.7252,4.84254 53,6.5C 52.7216,5.5842 52.2216,4.91753 51.5,4.5 Z M 69.5,3.5 C 70.2891,3.78281 70.9558,4.28281 71.5,5C 70.6634,6.01127 70.33,7.17793 70.5,8.5C 70.1667,8.5 69.8333,8.5 69.5,8.5C 69.5,6.83333 69.5,5.16667 69.5,3.5 Z M 46.5,5.5 C 47.9187,4.54885 49.5853,4.21552 51.5,4.5C 51.631,5.23891 51.4643,5.90558 51,6.5C 49.6439,5.61983 48.1439,5.28649 46.5,5.5 Z M 80.5,9.5 C 80.5,9.16667 80.5,8.83333 80.5,8.5C 83.4596,9.03204 83.7929,9.69871 81.5,10.5C 80.8333,10.5 80.5,10.1667 80.5,9.5 Z M 52.5,15.5 C 52.7373,14.209 52.404,13.209 51.5,12.5C 51.4226,11.2502 50.756,10.4169 49.5,10C 50.7932,9.50999 52.1266,9.34332 53.5,9.5C 53.7947,11.7354 53.4614,13.7354 52.5,15.5 Z M 97.5,9.5 C 97.2172,10.2891 96.7172,10.9558 96,11.5C 95.4719,10.184 95.9719,9.51731 97.5,9.5 Z M 69.5,10.5 C 69.8333,10.5 70.1667,10.5 70.5,10.5C 70.5504,17.6791 70.8838,24.8457 71.5,32C 70.9056,32.4643 70.2389,32.631 69.5,32.5C 69.8195,27.6367 69.4861,22.97 68.5,18.5C 68.5,18.1667 68.5,17.8333 68.5,17.5C 68.5,16.8333 68.8333,16.5 69.5,16.5C 69.5,14.5 69.5,12.5 69.5,10.5 Z M 87.5,10.5 C 86.2475,12.3388 86.2475,14.1722 87.5,16C 86.9056,16.4643 86.2389,16.631 85.5,16.5C 85.0254,13.9179 85.6921,11.9179 87.5,10.5 Z M 45.5,12.5 C 46.5,12.8333 47.1667,13.5 47.5,14.5C 46.1667,14.5 45.5,13.8333 45.5,12.5 Z M 51.5,12.5 C 51.5,13.8333 50.8333,14.5 49.5,14.5C 49.8333,13.5 50.5,12.8333 51.5,12.5 Z M 81.5,25.5 C 81.815,21.6286 81.4816,17.9619 80.5,14.5C 81.0024,12.9153 82.0024,12.4153 83.5,13C 82.8599,17.2679 82.1933,21.4345 81.5,25.5 Z M 47.5,14.5 C 48.1667,14.5 48.8333,14.5 49.5,14.5C 50.209,15.404 51.209,15.7373 52.5,15.5C 52.1583,16.3382 51.4916,16.6716 50.5,16.5C 49.1667,16.5 47.8333,16.5 46.5,16.5C 45.5084,16.6716 44.8417,16.3382 44.5,15.5C 45.791,15.7373 46.791,15.404 47.5,14.5 Z M 42.5,17.5 C 43.4916,17.3284 44.1583,17.6618 44.5,18.5C 43.8333,18.8333 43.1667,19.1667 42.5,19.5C 42.5,18.8333 42.5,18.1667 42.5,17.5 Z M 89.5,17.5 C 90.1667,18.8333 90.8333,18.8333 91.5,17.5C 92.3382,17.8417 92.6716,18.5084 92.5,19.5C 90.4727,19.6621 88.4727,19.4955 86.5,19C 87.2438,17.9614 88.2438,17.4614 89.5,17.5 Z M 61.5,18.5 C 61.5,20.5 61.5,22.5 61.5,24.5C 59.8333,24.5 58.1667,24.5 56.5,24.5C 56.5,23.5 56.5,22.5 56.5,21.5C 57.4674,22.8062 58.8007,23.4729 60.5,23.5C 60.5875,20.4017 60.0875,20.0684 59,22.5C 58.4867,21.4734 57.9867,20.4734 57.5,19.5C 58.9587,19.5674 60.2921,19.2341 61.5,18.5 Z M 54.5,18.5 C 55.791,18.2627 56.791,18.596 57.5,19.5C 56.6618,19.8417 56.3284,20.5084 56.5,21.5C 55.5987,20.7095 54.9321,19.7095 54.5,18.5 Z M 69.5,33.5 C 71.9327,33.7856 71.9327,34.4523 69.5,35.5C 69.5,34.8333 69.5,34.1667 69.5,33.5 Z"/></g>
<g><path style="opacity:0.431" fill="#f6f6f6" d="M 71.5,0.5 C 72.1667,0.5 72.8333,0.5 73.5,0.5C 73.2276,12.1948 73.561,23.8614 74.5,35.5C 74.4431,36.609 74.1098,37.609 73.5,38.5C 72.8333,38.5 72.1667,38.5 71.5,38.5C 70.4489,37.7777 69.7822,36.7777 69.5,35.5C 71.9327,34.4523 71.9327,33.7856 69.5,33.5C 69.5,33.1667 69.5,32.8333 69.5,32.5C 70.2389,32.631 70.9056,32.4643 71.5,32C 70.8838,24.8457 70.5504,17.6791 70.5,10.5C 71.8333,9.83333 71.8333,9.16667 70.5,8.5C 70.33,7.17793 70.6634,6.01127 71.5,5C 70.9558,4.28281 70.2891,3.78281 69.5,3.5C 70.1667,2.5 70.8333,1.5 71.5,0.5 Z"/></g>
<g><path style="opacity:0.664" fill="#fcfcfc" d="M 92.5,0.5 C 93.5,0.5 94.5,0.5 95.5,0.5C 95.5,1.5 95.5,2.5 95.5,3.5C 96.552,3.35055 97.552,3.51722 98.5,4C 99.8333,4.66667 99.8333,5.33333 98.5,6C 99.7932,6.49001 101.127,6.65668 102.5,6.5C 102.5,7.5 102.5,8.5 102.5,9.5C 99.9784,11.1723 97.3118,12.6723 94.5,14C 95.0944,14.4643 95.7611,14.631 96.5,14.5C 96.0825,15.2216 95.4158,15.7216 94.5,16C 95.3366,17.0113 95.67,18.1779 95.5,19.5C 95.8333,19.5 96.1667,19.5 96.5,19.5C 97.5676,20.4345 98.901,20.7678 100.5,20.5C 100.5,22.8333 100.5,25.1667 100.5,27.5C 99.1667,27.8333 99.1667,28.1667 100.5,28.5C 101.15,30.4352 101.483,32.4352 101.5,34.5C 100.373,35.1217 99.3734,35.955 98.5,37C 93.1771,37.4994 87.8437,37.666 82.5,37.5C 82.8866,33.5559 82.22,29.8892 80.5,26.5C 81.1667,26.5 81.5,26.1667 81.5,25.5C 82.1933,21.4345 82.8599,17.2679 83.5,13C 82.0024,12.4153 81.0024,12.9153 80.5,14.5C 79.1667,14.5 78.5,13.8333 78.5,12.5C 79.1667,12.5 79.5,12.1667 79.5,11.5C 80.4916,11.6716 81.1583,11.3382 81.5,10.5C 83.7929,9.69871 83.4596,9.03204 80.5,8.5C 80.5,7.83333 80.5,7.16667 80.5,6.5C 82.0269,6.57298 83.0269,5.90632 83.5,4.5C 84.5,4.16667 85.1667,3.5 85.5,2.5C 88.0098,2.07332 90.3432,1.40666 92.5,0.5 Z M 97.5,9.5 C 95.9719,9.51731 95.4719,10.184 96,11.5C 96.7172,10.9558 97.2172,10.2891 97.5,9.5 Z M 87.5,10.5 C 86.2475,12.3388 86.2475,14.1722 87.5,16C 86.9056,16.4643 86.2389,16.631 85.5,16.5C 85.0254,13.9179 85.6921,11.9179 87.5,10.5 Z M 89.5,17.5 C 90.1667,18.8333 90.8333,18.8333 91.5,17.5C 92.3382,17.8417 92.6716,18.5084 92.5,19.5C 90.4727,19.6621 88.4727,19.4955 86.5,19C 87.2438,17.9614 88.2438,17.4614 89.5,17.5 Z"/></g>
<g><path style="opacity:0.004" fill="#e2e1e0" d="M 10.5,1.5 C 11.8333,2.16667 11.8333,2.16667 10.5,1.5 Z"/></g>
<g><path style="opacity:0.004" fill="#e4e0df" d="M 118.5,1.5 C 119.833,2.16667 119.833,2.16667 118.5,1.5 Z"/></g>
<g><path style="opacity:0.004" fill="#e0e2e1" d="M 9.5,3.5 C 8.83333,2.16667 8.83333,2.16667 9.5,3.5 Z"/></g>
<g><path style="opacity:0.02" fill="#e3e1e0" d="M 8.5,3.5 C 7.83333,4.16667 7.83333,4.16667 8.5,3.5 Z"/></g>
<g><path style="opacity:0.619" fill="#e4e1e1" d="M 9.5,3.5 C 11.0783,4.06563 12.4116,5.06563 13.5,6.5C 12.3881,7.26515 11.7214,8.26515 11.5,9.5C 10.391,9.44312 9.39105,9.10978 8.5,8.5C 8.08247,7.77842 7.4158,7.27842 6.5,7C 8.06291,6.24109 9.06291,5.07442 9.5,3.5 Z"/></g>
<g><path style="opacity:0.013" fill="#e4e1e1" d="M 51.5,3.5 C 51.5,3.83333 51.5,4.16667 51.5,4.5C 49.5853,4.21552 47.9187,4.54885 46.5,5.5C 44.4935,6.67852 44.1602,6.17852 45.5,4C 47.4727,3.50454 49.4727,3.33788 51.5,3.5 Z"/></g>
<g><path style="opacity:0.241" fill="#e4e1e1" d="M 64.5,4.5 C 64.5,5.5 64.5,6.5 64.5,7.5C 63.1667,7.5 61.8333,7.5 60.5,7.5C 60.6495,6.44802 60.4828,5.44802 60,4.5C 59.6667,8.16667 59.3333,11.8333 59,15.5C 58.5012,11.5138 58.3345,7.51383 58.5,3.5C 60.6208,3.32526 62.6208,3.65859 64.5,4.5 Z"/></g>
<g><path style="opacity:0.004" fill="#e4e3e2" d="M 115.5,3.5 C 116.833,4.16667 116.833,4.16667 115.5,3.5 Z"/></g>
<g><path style="opacity:0.536" fill="#e4e1e1" d="M 120.5,4.5 C 121.551,5.22235 122.218,6.22235 122.5,7.5C 121.508,7.32842 120.842,7.66175 120.5,8.5C 119.85,8.80393 119.183,9.13727 118.5,9.5C 117.735,8.38809 116.735,7.72142 115.5,7.5C 116.322,4.61949 117.989,3.61949 120.5,4.5 Z"/></g>
<g><path style="opacity:0.016" fill="#e3e2e1" d="M 120.5,3.5 C 121.833,4.16667 121.833,4.16667 120.5,3.5 Z"/></g>
<g><path style="opacity:0.004" fill="#e2dfde" d="M 14.5,5.5 C 15.8333,6.16667 15.8333,6.16667 14.5,5.5 Z"/></g>
<g><path style="opacity:0.013" fill="#e3e0e0" d="M 32.5,6.5 C 33.7647,7.51448 34.4313,9.01448 34.5,11C 34.1667,12.5 33.8333,14 33.5,15.5C 32.5159,12.5719 32.1826,9.57186 32.5,6.5 Z"/></g>
<g><path style="opacity:0.004" fill="#e3dfdf" d="M 114.5,7.5 C 113.475,7.10343 113.308,6.43677 114,5.5C 114.464,6.09442 114.631,6.76109 114.5,7.5 Z"/></g>
<g><path style="opacity:0.004" fill="#e4e1e0" d="M 123.5,6.5 C 124.833,7.16667 124.833,7.16667 123.5,6.5 Z"/></g>
<g><path style="opacity:0.008" fill="#e4e1e1" d="M 24.5,2.5 C 23.7861,13.8171 23.2861,25.4837 23,37.5C 22.1674,25.4861 22.3341,13.4861 23.5,1.5C 24.1067,1.62358 24.44,1.95691 24.5,2.5 Z"/></g>
<g><path style="opacity:0.004" fill="#e2e0df" d="M 114.5,7.5 C 114.833,7.5 115.167,7.5 115.5,7.5C 115.5,7.83333 115.5,8.16667 115.5,8.5C 115.167,8.16667 114.833,7.83333 114.5,7.5 Z"/></g>
<g><path style="opacity:0.004" fill="#e3e1e0" d="M 122.5,7.5 C 122.833,7.5 123.167,7.5 123.5,7.5C 123.315,8.17014 122.981,8.17014 122.5,7.5 Z"/></g>
<g><path style="opacity:0.02" fill="#e3e1e0" d="M 8.5,8.5 C 7.83333,9.16667 7.83333,9.16667 8.5,8.5 Z"/></g>
<g><path style="opacity:0.02" fill="#e3e1e0" d="M 12.5,8.5 C 13.8333,9.16667 13.8333,9.16667 12.5,8.5 Z"/></g>
<g><path style="opacity:0.005" fill="#e3e0e0" d="M 64.5,7.5 C 64.8333,7.5 65.1667,7.5 65.5,7.5C 65.5,8.83333 65.5,10.1667 65.5,11.5C 65.1667,11.5 64.8333,11.5 64.5,11.5C 64.5,10.8333 64.1667,10.5 63.5,10.5C 63.3893,9.88258 63.056,9.38258 62.5,9C 63.4158,8.72158 64.0825,8.22158 64.5,7.5 Z"/></g>
<g><path style="opacity:0.012" fill="#e4e2e1" d="M 115.5,8.5 C 116.833,9.16667 116.833,9.16667 115.5,8.5 Z"/></g>
<g><path style="opacity:0.006" fill="#e5e1e0" d="M 120.5,8.5 C 121.167,8.5 121.833,8.5 122.5,8.5C 121.833,9.83333 121.167,9.83333 120.5,8.5 Z"/></g>
<g><path style="opacity:0.004" fill="#e3e3e2" d="M 11.5,9.5 C 11.8333,9.5 12.1667,9.5 12.5,9.5C 12.3147,10.1701 11.9813,10.1701 11.5,9.5 Z"/></g>
<g><path style="opacity:0.008" fill="#e4e1e1" d="M 40.5,13.5 C 40.2914,14.9217 39.7914,16.255 39,17.5C 38.3333,14.8333 38.3333,12.1667 39,9.5C 39.21,11.0581 39.71,12.3915 40.5,13.5 Z"/></g>
<g><path style="opacity:0.364" fill="#e4e1e1" d="M 63.5,10.5 C 64.1667,10.5 64.5,10.8333 64.5,11.5C 64.5,12.5 64.5,13.5 64.5,14.5C 63.2921,15.2341 61.9587,15.5674 60.5,15.5C 60.5,13.8333 60.5,12.1667 60.5,10.5C 61.5,10.5 62.5,10.5 63.5,10.5 Z"/></g>
<g><path style="opacity:0.012" fill="#b4b3b3" d="M 120.5,11.5 C 119.448,11.6495 118.448,11.4828 117.5,11C 118.749,10.2599 119.749,10.4265 120.5,11.5 Z"/></g>
<g><path style="opacity:0.004" fill="#abacab" d="M 120.5,11.5 C 121.167,11.5 121.5,11.8333 121.5,12.5C 121.167,12.1667 120.833,11.8333 120.5,11.5 Z"/></g>
<g><path style="opacity:0.814" fill="#b5b4b4" d="M 17.5,-0.5 C 17.8333,-0.5 18.1667,-0.5 18.5,-0.5C 18.274,12.8277 18.274,26.1611 18.5,39.5C 18.1667,39.5 17.8333,39.5 17.5,39.5C 17.5,34.8333 17.5,30.1667 17.5,25.5C 15.901,25.2322 14.5676,25.5655 13.5,26.5C 12.8333,26.5 12.5,26.8333 12.5,27.5C 11.8333,27.5 11.5,27.8333 11.5,28.5C 8.51341,26.686 5.51341,25.0193 2.5,23.5C 3.83333,21.5 3.83333,19.5 2.5,17.5C 5.23037,16.1198 7.89704,14.4532 10.5,12.5C 11.5178,13.1925 12.5178,13.8592 13.5,14.5C 14.5676,15.4345 15.901,15.7678 17.5,15.5C 17.5,10.1667 17.5,4.83333 17.5,-0.5 Z"/></g>
<g><path style="opacity:0.818" fill="#b4b4b4" d="M 110.5,-0.5 C 110.833,-0.5 111.167,-0.5 111.5,-0.5C 111.5,4.83333 111.5,10.1667 111.5,15.5C 114.421,15.8541 116.754,14.8541 118.5,12.5C 120.707,14.6827 123.374,16.0161 126.5,16.5C 125.212,19.0335 125.212,21.5335 126.5,24C 124.825,24.9853 123.158,25.8186 121.5,26.5C 120.395,27.6005 119.062,28.2671 117.5,28.5C 116.32,26.087 114.32,25.087 111.5,25.5C 111.5,30.1667 111.5,34.8333 111.5,39.5C 111.167,39.5 110.833,39.5 110.5,39.5C 110.26,33.773 110.593,28.1064 111.5,22.5C 112.833,21.1667 112.833,19.8333 111.5,18.5C 110.582,12.2252 110.249,5.89183 110.5,-0.5 Z"/></g>
<g><path style="opacity:0.008" fill="#abacab" d="M 121.5,12.5 C 122.167,12.5 122.5,12.8333 122.5,13.5C 122.167,13.1667 121.833,12.8333 121.5,12.5 Z"/></g>
<g><path style="opacity:0.014" fill="#acacac" d="M 13.5,14.5 C 14.2506,13.4265 15.2506,13.2599 16.5,14C 15.552,14.4828 14.552,14.6495 13.5,14.5 Z"/></g>
<g><path style="opacity:0.014" fill="#dddbdb" d="M 45.5,12.5 C 45.5,13.8333 46.1667,14.5 47.5,14.5C 46.791,15.404 45.791,15.7373 44.5,15.5C 44.2627,14.209 44.596,13.209 45.5,12.5 Z"/></g>
<g><path style="opacity:0.01" fill="#acacac" d="M 122.5,13.5 C 123.552,13.3505 124.552,13.5172 125.5,14C 124.251,14.7401 123.251,14.5735 122.5,13.5 Z"/></g>
<g><path style="opacity:0.004" fill="#d5d3d3" d="M 51.5,12.5 C 52.404,13.209 52.7373,14.209 52.5,15.5C 51.209,15.7373 50.209,15.404 49.5,14.5C 50.8333,14.5 51.5,13.8333 51.5,12.5 Z"/></g>
<g><path style="opacity:0.024" fill="#dcd9d9" d="M 65.5,11.5 C 66.4345,12.5676 66.7678,13.901 66.5,15.5C 65.5084,15.6716 64.8417,15.3382 64.5,14.5C 65.404,13.791 65.7373,12.791 65.5,11.5 Z"/></g>
<g><path style="opacity:0.01" fill="#acacac" d="M 2.5,17.5 C 2.63101,18.2389 2.46434,18.9056 2,19.5C 1.30831,18.5632 1.47498,17.8966 2.5,17.5 Z"/></g>
<g><path style="opacity:0.959" fill="#d4d4d4" d="M 56.5,32.5 C 54.7278,34.2896 52.7278,35.6229 50.5,36.5C 48.8828,35.962 47.2161,35.6287 45.5,35.5C 45.5,35.1667 45.5,34.8333 45.5,34.5C 41.9901,29.9117 41.6568,25.0784 44.5,20C 47.7907,17.9255 50.9574,18.0922 54,20.5C 54.0072,24.8099 54.8406,28.8099 56.5,32.5 Z"/></g>
<g><path style="opacity:0.986" fill="#d5d5d5" d="M 68.5,18.5 C 69.4861,22.97 69.8195,27.6367 69.5,32.5C 68.8333,32.5 68.5,32.8333 68.5,33.5C 67.8333,33.5 67.5,33.8333 67.5,34.5C 66.8333,34.5 66.5,34.8333 66.5,35.5C 65.8333,35.5 65.1667,35.5 64.5,35.5C 59.1085,35.1014 56.4418,32.1014 56.5,26.5C 58.8211,26.2289 60.8211,26.8955 62.5,28.5C 63.487,25.2317 63.8204,21.8984 63.5,18.5C 64.8333,18.5 66.1667,18.5 67.5,18.5C 67.8333,35.8333 68.1667,35.8333 68.5,18.5 Z"/></g>
<g><path style="opacity:0.01" fill="#acacac" d="M 126.5,18.5 C 127.598,19.6009 127.765,20.9343 127,22.5C 126.51,21.2068 126.343,19.8734 126.5,18.5 Z"/></g>
<g><path style="opacity:0.42" fill="#b2b2b2" d="M 46.5,16.5 C 47.8333,16.5 49.1667,16.5 50.5,16.5C 51.5137,17.6737 52.847,18.3404 54.5,18.5C 54.9321,19.7095 55.5987,20.7095 56.5,21.5C 56.5,22.5 56.5,23.5 56.5,24.5C 58.1667,24.5 59.8333,24.5 61.5,24.5C 61.5,22.5 61.5,20.5 61.5,18.5C 62.5,18.1667 63.1667,17.5 63.5,16.5C 64.1667,16.5 64.8333,16.5 65.5,16.5C 66.209,17.404 67.209,17.7373 68.5,17.5C 68.5,17.8333 68.5,18.1667 68.5,18.5C 68.1667,35.8333 67.8333,35.8333 67.5,18.5C 66.1667,18.5 64.8333,18.5 63.5,18.5C 63.8204,21.8984 63.487,25.2317 62.5,28.5C 60.8211,26.8955 58.8211,26.2289 56.5,26.5C 56.4418,32.1014 59.1085,35.1014 64.5,35.5C 64.5,35.8333 64.5,36.1667 64.5,36.5C 62.5,36.1667 60.5,35.8333 58.5,35.5C 57.8333,34.5 57.1667,33.5 56.5,32.5C 54.8406,28.8099 54.0072,24.8099 54,20.5C 50.9574,18.0922 47.7907,17.9255 44.5,20C 41.6568,25.0784 41.9901,29.9117 45.5,34.5C 44.391,34.4431 43.391,34.1098 42.5,33.5C 40.9084,30.0336 40.2417,26.3669 40.5,22.5C 41.4013,21.7095 42.0679,20.7095 42.5,19.5C 43.1667,19.1667 43.8333,18.8333 44.5,18.5C 45.5,18.1667 46.1667,17.5 46.5,16.5 Z M 61.5,18.5 C 61.5,20.5 61.5,22.5 61.5,24.5C 59.8333,24.5 58.1667,24.5 56.5,24.5C 56.5,23.5 56.5,22.5 56.5,21.5C 57.4674,22.8062 58.8007,23.4729 60.5,23.5C 60.5875,20.4017 60.0875,20.0684 59,22.5C 58.4867,21.4734 57.9867,20.4734 57.5,19.5C 58.9587,19.5674 60.2921,19.2341 61.5,18.5 Z M 54.5,18.5 C 55.791,18.2627 56.791,18.596 57.5,19.5C 56.6618,19.8417 56.3284,20.5084 56.5,21.5C 55.5987,20.7095 54.9321,19.7095 54.5,18.5 Z"/></g>
<g><path style="opacity:0.031" fill="#cecccc" d="M 111.5,18.5 C 111.5,19.8333 111.5,21.1667 111.5,22.5C 110.167,21.1667 110.167,19.8333 111.5,18.5 Z"/></g>
<g><path style="opacity:0.01" fill="#acacac" d="M 2.5,23.5 C 1.47498,23.1034 1.30831,22.4368 2,21.5C 2.46434,22.0944 2.63101,22.7611 2.5,23.5 Z"/></g>
<g><path style="opacity:0.012" fill="#b3b3b3" d="M 57.5,19.5 C 57.9867,20.4734 58.4867,21.4734 59,22.5C 60.0875,20.0684 60.5875,20.4017 60.5,23.5C 58.8007,23.4729 57.4674,22.8062 56.5,21.5C 56.3284,20.5084 56.6618,19.8417 57.5,19.5 Z"/></g>
<g><path style="opacity:0.639" fill="#a7a7a7" d="M 49.5,23.5 C 50.4614,25.2646 50.7947,27.2646 50.5,29.5C 49.448,29.6495 48.448,29.4828 47.5,29C 49.1922,27.5993 49.8588,25.7659 49.5,23.5 Z"/></g>
<g><path style="opacity:0.013" fill="#acacac" d="M 13.5,27.5 C 13.5,27.1667 13.5,26.8333 13.5,26.5C 17.5,26.8333 17.5,27.1667 13.5,27.5 Z"/></g>
<g><path style="opacity:0.012" fill="#abacab" d="M 112.5,27.5 C 113.251,26.4265 114.251,26.2599 115.5,27C 114.552,27.4828 113.552,27.6495 112.5,27.5 Z"/></g>
<g><path style="opacity:0.008" fill="#acacac" d="M 121.5,26.5 C 126.539,26.4511 126.705,27.1177 122,28.5C 121.536,27.9056 121.369,27.2389 121.5,26.5 Z"/></g>
<g><path style="opacity:0.016" fill="#abacab" d="M 12.5,27.5 C 12.8333,27.5 13.1667,27.5 13.5,27.5C 13.3147,28.1701 12.9813,28.1701 12.5,27.5 Z"/></g>
<g><path style="opacity:0.008" fill="#aaabaa" d="M 11.5,28.5 C 11.8333,28.5 12.1667,28.5 12.5,28.5C 12.3147,29.1701 11.9813,29.1701 11.5,28.5 Z"/></g>
<g><path style="opacity:0.004" fill="#acadac" d="M 117.5,28.5 C 117.5,28.8333 117.5,29.1667 117.5,29.5C 116.83,29.0187 116.83,28.6853 117.5,28.5 Z"/></g>
<g><path style="opacity:0.008" fill="#afafaf" d="M 11.5,29.5 C 11.1034,30.525 10.4368,30.6917 9.5,30C 10.0944,29.5357 10.7611,29.369 11.5,29.5 Z"/></g>
<g><path style="opacity:0.01" fill="#b3b1b1" d="M 117.5,29.5 C 118.492,29.3284 119.158,29.6618 119.5,30.5C 118.508,30.6716 117.842,30.3382 117.5,29.5 Z"/></g>
<g><path style="opacity:0.583" fill="#e4e2e2" d="M 12.5,32.5 C 12.8039,33.1499 13.1373,33.8165 13.5,34.5C 12.3881,35.2652 11.7214,36.2652 11.5,37.5C 6.97953,36.0247 6.6462,34.0247 10.5,31.5C 11.1835,31.8627 11.8501,32.1961 12.5,32.5 Z"/></g>
<g><path style="opacity:0.02" fill="#e4e1e0" d="M 12.5,31.5 C 13.8333,32.1667 13.8333,32.1667 12.5,31.5 Z"/></g>
<g><path style="opacity:0.004" fill="#e3e2e1" d="M 115.5,31.5 C 116.833,32.1667 116.833,32.1667 115.5,31.5 Z"/></g>
<g><path style="opacity:0.489" fill="#e4e1e1" d="M 119.5,30.5 C 120.306,31.8675 121.306,33.2008 122.5,34.5C 121.975,35.1924 121.308,35.6924 120.5,36C 120.833,36.3333 121.167,36.6667 121.5,37C 119.833,37.6667 118.167,37.6667 116.5,37C 116.833,36.6667 117.167,36.3333 117.5,36C 116.692,35.6924 116.025,35.1924 115.5,34.5C 116.881,33.1186 118.215,31.7853 119.5,30.5 Z"/></g>
<g><path style="opacity:0.004" fill="#e3e2e1" d="M 121.5,31.5 C 122.833,32.1667 122.833,32.1667 121.5,31.5 Z"/></g>
<g><path style="opacity:0.004" fill="#e5e1e0" d="M 5.5,33.5 C 6.83333,34.1667 6.83333,34.1667 5.5,33.5 Z"/></g>
<g><path style="opacity:0.004" fill="#e4e2e1" d="M 123.5,33.5 C 124.833,34.1667 124.833,34.1667 123.5,33.5 Z"/></g>
<g><path style="opacity:0.004" fill="#e9e9e9" d="M 68.5,33.5 C 68.8333,33.5 69.1667,33.5 69.5,33.5C 69.5,34.1667 69.5,34.8333 69.5,35.5C 68.7784,35.9175 68.2784,36.5842 68,37.5C 67.6174,36.944 67.1174,36.6107 66.5,36.5C 66.5,36.1667 66.5,35.8333 66.5,35.5C 67.1667,35.5 67.5,35.1667 67.5,34.5C 68.1667,34.5 68.5,34.1667 68.5,33.5 Z"/></g>
<g><path style="opacity:0.008" fill="#e3e2e1" d="M 7.5,36.5 C 8.83333,37.1667 8.83333,37.1667 7.5,36.5 Z"/></g>
<g><path style="opacity:0.012" fill="#e3e1e0" d="M 12.5,36.5 C 13.8333,37.1667 13.8333,37.1667 12.5,36.5 Z"/></g>
<g><path style="opacity:0.004" fill="#e2dfde" d="M 11.5,37.5 C 11.8333,37.5 12.1667,37.5 12.5,37.5C 12.3147,38.1701 11.9813,38.1701 11.5,37.5 Z"/></g>
<g><path style="opacity:0.004" fill="#e3dfdf" d="M 9.5,39.5 C 9.84171,38.6618 10.5084,38.3284 11.5,38.5C 11.5,38.8333 11.5,39.1667 11.5,39.5C 10.8333,39.5 10.1667,39.5 9.5,39.5 Z"/></g>
<g><path style="opacity:0.008" fill="#e3e0df" d="M 119.5,39.5 C 118.833,38.1667 118.833,38.1667 119.5,39.5 Z"/></g>
</svg>
