<?xml version="1.0" standalone="no"?>
<!DOCTYPE svg PUBLIC "-//W3C//DTD SVG 20010904//EN"
 "http://www.w3.org/TR/2001/REC-SVG-20010904/DTD/svg10.dtd">
<svg version="1.0" xmlns="http://www.w3.org/2000/svg"
 width="360.000000pt" height="120.000000pt" viewBox="0 0 360.000000 120.000000"
 preserveAspectRatio="xMidYMid meet">

<g transform="translate(0.000000,120.000000) scale(0.100000,-0.100000)"
fill="#000000" stroke="none">
<path d="M909 1120 c-127 -75 -194 -89 -258 -56 -25 13 -45 16 -82 11 -44 -6
-68 -22 -239 -156 -104 -83 -190 -153 -190 -156 0 -21 384 60 425 90 17 12 80
56 142 98 61 42 128 89 148 105 l37 28 -4 -445 c-3 -410 -4 -446 -21 -464 -28
-31 -33 -66 -12 -82 26 -18 31 -17 62 16 43 45 52 58 46 65 -12 11 -31 6 -54
-15 l-24 -20 25 6 25 6 -24 -20 c-46 -40 -56 -18 -16 35 14 18 34 36 45 39 11
3 20 11 20 16 0 5 -11 2 -24 -6 -40 -27 -38 -60 -31 505 5 367 6 375 27 393
31 26 17 30 -23 7z"/>
<path d="M3361 1114 c0 -11 3 -14 6 -6 3 7 2 16 -1 19 -3 4 -6 -2 -5 -13z"/>
<path d="M1767 1080 c3 -25 7 -47 9 -49 8 -9 2 55 -6 74 -6 13 -7 5 -3 -25z"/>
<path d="M2402 1091 c13 -15 24 -27 26 -26 6 5 -23 45 -36 50 -7 3 -3 -8 10
-24z"/>
<path d="M2854 1062 l-2 -47 10 38 c6 22 7 42 2 47 -5 5 -10 -12 -10 -38z"/>
<path d="M1671 1074 c0 -11 3 -14 6 -6 3 7 2 16 -1 19 -3 4 -6 -2 -5 -13z"/>
<path d="M2283 1043 c-10 -23 -17 -75 -19 -133 l-3 -95 8 95 c5 52 16 112 24
133 9 20 14 37 11 37 -3 0 -12 -17 -21 -37z"/>
<path d="M3373 1035 c0 -27 2 -38 4 -22 2 15 2 37 0 50 -2 12 -4 0 -4 -28z"/>
<path d="M2535 1035 c0 -13 3 -21 8 -18 4 2 7 10 7 18 0 8 -3 16 -7 18 -5 3
-8 -5 -8 -18z"/>
<path d="M2431 1033 c-1 -12 4 -25 9 -28 12 -7 12 2 0 30 -8 19 -9 19 -9 -2z"/>
<path d="M1570 978 c0 -57 -12 -197 -25 -288 -5 -35 -5 -35 5 -5 5 16 14 86
20 155 16 184 16 200 8 200 -5 0 -8 -28 -8 -62z"/>
<path d="M2658 980 c-1 -28 0 -50 4 -50 3 0 8 23 10 50 1 28 0 50 -4 50 -3 0
-8 -23 -10 -50z"/>
<path d="M1760 975 c0 -27 3 -45 7 -41 7 7 5 77 -3 85 -2 2 -4 -17 -4 -44z"/>
<path d="M2046 988 c10 -14 21 -24 23 -22 3 3 -6 15 -18 27 l-24 22 19 -27z"/>
<path d="M3111 993 c7 -12 15 -20 18 -17 3 2 -3 12 -13 22 -17 16 -18 16 -5
-5z"/>
<path d="M660 904 c-123 -83 -128 -85 -239 -108 -62 -13 -115 -27 -118 -30
-10 -9 -16 -96 -7 -96 5 0 38 9 72 20 35 11 81 20 102 20 51 0 107 25 137 61
14 16 61 53 104 81 79 51 79 52 79 95 0 23 -1 43 -2 42 -2 0 -59 -38 -128 -85z"/>
<path d="M2432 970 c0 -14 2 -19 5 -12 2 6 2 18 0 25 -3 6 -5 1 -5 -13z"/>
<path d="M1983 965 c-3 -9 -3 -18 -1 -21 3 -3 8 4 11 16 6 23 -1 27 -10 5z"/>
<path d="M3044 955 c-4 -14 -4 -29 0 -32 3 -4 6 3 6 13 0 11 5 25 12 32 9 9 9
12 0 12 -6 0 -14 -11 -18 -25z"/>
<path d="M2528 894 c2 -42 5 -74 7 -72 9 8 7 130 -1 138 -5 5 -8 -22 -6 -66z"/>
<path d="M3363 900 c0 -41 2 -58 4 -37 2 20 2 54 0 75 -2 20 -4 3 -4 -38z"/>
<path d="M3132 940 c0 -14 2 -19 5 -12 2 6 2 18 0 25 -3 6 -5 1 -5 -13z"/>
<path d="M2843 860 c0 -47 2 -66 4 -42 2 23 2 61 0 85 -2 23 -4 4 -4 -43z"/>
<path d="M1875 908 c13 -21 16 -44 13 -97 -2 -45 0 -67 7 -60 5 5 8 39 7 77
-2 53 -7 71 -24 87 l-20 20 17 -27z"/>
<path d="M1764 886 c-3 -7 -4 -42 -2 -77 l3 -64 5 78 c5 77 4 89 -6 63z"/>
<path d="M3214 885 c-10 -26 1 -35 13 -10 6 14 7 25 2 25 -5 0 -12 -7 -15 -15z"/>
<path d="M2654 876 c-3 -7 -4 -38 -2 -67 l3 -54 5 68 c5 67 4 79 -6 53z"/>
<path d="M1972 818 c2 -35 8 -53 18 -55 12 -4 12 -3 1 5 -9 6 -12 25 -10 56 2
25 1 46 -4 46 -4 0 -7 -23 -5 -52z"/>
<path d="M3211 814 c0 -12 7 -28 17 -35 15 -12 16 -12 6 1 -7 8 -14 24 -17 35
-4 19 -5 19 -6 -1z"/>
<path d="M2071 804 c0 -11 3 -14 6 -6 3 7 2 16 -1 19 -3 4 -6 -2 -5 -13z"/>
<path d="M2956 805 c-4 -11 -13 -33 -21 -48 -8 -15 -10 -25 -5 -22 16 10 42
65 37 78 -3 7 -8 3 -11 -8z"/>
<path d="M3352 790 c0 -19 2 -27 5 -17 2 9 2 25 0 35 -3 9 -5 1 -5 -18z"/>
<path d="M2272 790 c0 -14 2 -19 5 -12 2 6 2 18 0 25 -3 6 -5 1 -5 -13z"/>
<path d="M2522 785 c0 -16 2 -22 5 -12 2 9 2 23 0 30 -3 6 -5 -1 -5 -18z"/>
<path d="M3040 785 c0 -14 4 -25 9 -25 4 0 6 11 3 25 -2 14 -6 25 -8 25 -2 0
-4 -11 -4 -25z"/>
<path d="M3131 794 c0 -11 3 -14 6 -6 3 7 2 16 -1 19 -3 4 -6 -2 -5 -13z"/>
<path d="M2404 744 c-11 -24 -17 -41 -12 -38 12 7 40 64 36 73 -2 4 -12 -12
-24 -35z"/>
<path d="M3104 748 l-19 -23 23 19 c21 18 27 26 19 26 -2 0 -12 -10 -23 -22z"/>
<path d="M2039 743 c-13 -16 -12 -17 4 -4 16 13 21 21 13 21 -2 0 -10 -8 -17
-17z"/>
<path d="M2280 753 c0 -6 8 -17 18 -24 16 -13 16 -13 2 6 -8 11 -16 22 -17 24
-2 2 -3 0 -3 -6z"/>
<path d="M2642 730 c0 -14 2 -19 5 -12 2 6 2 18 0 25 -3 6 -5 1 -5 -13z"/>
<path d="M712 691 c-91 -31 -166 -119 -193 -224 -9 -39 -9 -49 5 -69 l16 -22
0 29 c0 73 42 156 116 230 26 27 43 35 70 35 22 0 37 6 41 15 9 24 2 25 -55 6z"/>
<path d="M250 564 c-122 -65 -230 -134 -230 -146 0 -6 6 -5 15 2 19 16 264
150 274 150 3 0 -5 -112 -19 -250 -14 -137 -23 -250 -20 -250 11 0 107 60 135
85 l30 27 -49 -26 c-49 -26 -71 -33 -63 -18 3 4 8 68 11 142 4 74 11 166 17
204 8 59 7 72 -7 87 -9 10 -13 23 -9 28 9 15 9 15 -85 -35z"/>
<path d="M3511 584 c0 -11 3 -14 6 -6 3 7 2 16 -1 19 -3 4 -6 -2 -5 -13z"/>
<path d="M2387 580 c4 -8 11 -46 14 -85 l6 -70 1 66 c2 46 -3 71 -14 85 -8 10
-12 12 -7 4z"/>
<path d="M3237 580 c4 -8 10 -37 14 -65 l6 -50 2 46 c0 28 -5 52 -15 65 -8 10
-12 12 -7 4z"/>
<path d="M688 547 c-32 -17 -58 -35 -58 -39 0 -14 27 -9 40 8 18 20 47 35 77
39 13 1 29 7 36 14 24 24 -39 10 -95 -22z"/>
<path d="M1463 563 c11 -12 25 -39 33 -60 7 -21 13 -30 14 -20 0 24 -24 70
-47 88 -17 13 -17 12 0 -8z"/>
<path d="M1913 540 c0 -25 2 -35 4 -22 2 12 2 32 0 45 -2 12 -4 2 -4 -23z"/>
<path d="M2164 524 c0 -30 2 -54 5 -54 9 0 13 98 4 103 -4 3 -8 -19 -9 -49z"/>
<path d="M3523 490 c0 -41 2 -58 4 -37 2 20 2 54 0 75 -2 20 -4 3 -4 -38z"/>
<path d="M1340 525 c0 -14 2 -25 4 -25 2 0 6 11 8 25 3 14 1 25 -3 25 -5 0 -9
-11 -9 -25z"/>
<path d="M1332 398 c-1 -54 1 -98 6 -98 4 0 6 30 4 67 -5 119 -9 131 -10 31z"/>
<path d="M1900 480 c0 -5 5 -10 11 -10 5 0 7 5 4 10 -3 6 -8 10 -11 10 -2 0
-4 -4 -4 -10z"/>
<path d="M2735 481 c-3 -5 0 -13 6 -17 7 -4 9 -3 5 4 -3 5 0 13 6 15 9 4 10 6
1 6 -6 1 -14 -3 -18 -8z"/>
<path d="M1507 443 c-3 -10 -8 -31 -12 -48 -4 -16 -18 -46 -32 -65 l-24 -35
30 34 c17 20 34 54 40 80 9 45 8 71 -2 34z"/>
<path d="M2586 424 c12 -28 13 -43 5 -68 -10 -28 -10 -29 4 -12 8 11 15 26 15
33 0 17 -27 83 -34 83 -3 0 2 -16 10 -36z"/>
<path d="M3240 345 c0 -65 3 -116 6 -113 7 7 6 219 -1 226 -3 3 -5 -48 -5
-113z"/>
<path d="M1730 425 c23 -25 25 -33 25 -136 0 -61 3 -100 7 -87 3 13 6 56 7 96
1 79 -17 135 -47 147 -11 4 -8 -3 8 -20z"/>
<path d="M2730 410 c0 -22 3 -40 8 -40 4 0 6 18 4 40 -2 22 -6 40 -8 40 -2 0
-4 -18 -4 -40z"/>
<path d="M1601 416 c-7 -8 -14 -31 -16 -53 l-5 -38 10 39 c6 22 15 45 21 53 6
7 9 13 6 13 -2 0 -10 -6 -16 -14z"/>
<path d="M2504 415 c-3 -8 -4 -20 -1 -27 3 -7 6 -3 6 9 1 12 7 24 14 26 9 4 9
6 -1 6 -7 1 -15 -6 -18 -14z"/>
<path d="M3034 405 c-3 -13 -4 -30 -1 -37 3 -7 6 -2 6 13 1 14 6 30 13 37 9 9
9 12 0 12 -6 0 -14 -11 -18 -25z"/>
<path d="M3126 402 c3 -16 0 -40 -7 -53 -11 -22 -11 -23 4 -10 18 15 23 76 7
86 -6 4 -7 -5 -4 -23z"/>
<path d="M1895 368 c-4 -29 -5 -78 -3 -108 4 -49 4 -47 6 20 1 41 6 90 11 108
5 17 6 32 1 32 -5 0 -11 -24 -15 -52z"/>
<path d="M2161 404 c0 -11 3 -14 6 -6 3 7 2 16 -1 19 -3 4 -6 -2 -5 -13z"/>
<path d="M2392 280 l1 -145 8 108 c5 60 5 125 0 145 -6 26 -9 -5 -9 -108z"/>
<path d="M3513 340 c0 -41 2 -58 4 -37 2 20 2 54 0 75 -2 20 -4 3 -4 -38z"/>
<path d="M609 379 c-8 -5 -25 -9 -39 -9 l-25 -1 23 -10 c27 -10 66 -3 81 15
12 15 -18 19 -40 5z"/>
<path d="M2154 283 c1 -73 5 -106 15 -115 12 -11 12 -10 5 2 -5 8 -12 60 -15
115 l-7 100 2 -102z"/>
<path d="M2927 305 c-4 -38 -12 -87 -16 -107 -5 -21 -5 -38 -1 -38 11 0 32
139 28 180 -3 26 -6 17 -11 -35z"/>
<path d="M3349 323 c-17 -20 -18 -98 -3 -113 9 -9 9 -2 1 27 -8 32 -7 46 6 71
17 36 16 40 -4 15z"/>
<path d="M2734 316 c-3 -8 -4 -29 -2 -48 3 -29 4 -27 8 15 5 48 3 58 -6 33z"/>
<path d="M2492 248 c2 -44 7 -63 18 -65 12 -4 12 -3 1 5 -9 7 -12 27 -10 66 2
31 0 56 -4 56 -4 0 -7 -28 -5 -62z"/>
<path d="M3021 258 c1 -55 5 -50 11 15 2 20 0 37 -4 37 -4 0 -7 -24 -7 -52z"/>
<path d="M1612 278 c-7 -7 -11 -21 -11 -32 1 -21 1 -21 6 -1 3 11 10 26 15 33
13 15 6 16 -10 0z"/>
<path d="M2021 245 c0 -16 -8 -43 -16 -59 -9 -16 -14 -31 -11 -33 9 -9 37 70
33 95 -4 27 -4 27 -6 -3z"/>
<path d="M2281 244 c0 -17 -13 -49 -27 -70 -20 -30 -22 -35 -6 -21 27 24 45
69 39 99 -3 18 -5 17 -6 -8z"/>
<path d="M1479 236 c25 -34 27 -66 6 -106 -9 -17 -13 -30 -11 -30 11 0 36 60
36 84 0 14 -12 38 -26 53 l-26 28 21 -29z"/>
<path d="M3503 225 c0 -22 2 -30 4 -17 2 12 2 30 0 40 -3 9 -5 -1 -4 -23z"/>
<path d="M2601 238 c0 -9 -4 -25 -7 -35 -5 -17 -5 -17 6 0 6 10 9 25 7 35 -4
15 -5 15 -6 0z"/>
<path d="M3130 226 c0 -14 -12 -39 -26 -58 l-26 -33 31 33 c18 18 31 43 31 57
0 14 -2 25 -5 25 -3 0 -5 -11 -5 -24z"/>
<path d="M1330 181 c0 -45 4 -60 16 -65 14 -5 15 -4 4 8 -7 9 -11 35 -8 66 1
27 0 50 -4 50 -5 0 -8 -27 -8 -59z"/>
<path d="M2722 195 c-1 -22 -5 -51 -7 -65 l-6 -25 11 25 c6 13 9 42 7 65 l-4
40 -1 -40z"/>
<path d="M3242 190 c0 -19 2 -27 5 -17 2 9 2 25 0 35 -3 9 -5 1 -5 -18z"/>
<path d="M1603 191 c1 -14 9 -26 17 -28 10 -3 11 -2 4 4 -7 4 -14 17 -17 28
-5 16 -5 15 -4 -4z"/>
<path d="M1900 186 c0 -8 4 -17 9 -20 5 -4 7 3 4 14 -6 23 -13 26 -13 6z"/>
<path d="M3030 190 c0 -5 5 -10 11 -10 5 0 7 5 4 10 -3 6 -8 10 -11 10 -2 0
-4 -4 -4 -10z"/>
<path d="M2564 158 l-19 -23 23 19 c12 11 22 21 22 23 0 8 -8 2 -26 -19z"/>
<path d="M3487 161 c-4 -17 -3 -21 5 -13 5 5 8 16 6 23 -3 8 -7 3 -11 -10z"/>
<path d="M3227 131 c-4 -17 -3 -21 5 -13 5 5 8 16 6 23 -3 8 -7 3 -11 -10z"/>
</g>
</svg>
