<?xml version="1.0" encoding="UTF-8"?>
<!DOCTYPE svg PUBLIC "-//W3C//DTD SVG 1.1//EN" "http://www.w3.org/Graphics/SVG/1.1/DTD/svg11.dtd">
<svg xmlns="http://www.w3.org/2000/svg" version="1.1" width="96px" height="96px" style="shape-rendering:geometricPrecision; text-rendering:geometricPrecision; image-rendering:optimizeQuality; fill-rule:evenodd; clip-rule:evenodd" xmlns:xlink="http://www.w3.org/1999/xlink">
<g><path style="opacity:0.958" fill="#fdfdfd" d="M 87.5,30.5 C 86.8826,30.6107 86.3826,30.944 86,31.5C 84.2002,29.683 82.0336,28.5163 79.5,28C 75.1667,27.3333 70.8333,27.3333 66.5,28C 64.3918,30.0164 64.0584,32.1831 65.5,34.5C 72.7268,37.7828 79.7268,41.6161 86.5,46C 88.8196,48.4778 90.4863,51.3111 91.5,54.5C 94.1127,67.0142 90.1127,76.6809 79.5,83.5C 79.0825,84.2216 78.4158,84.7216 77.5,85C 69.8333,85.6667 62.1667,85.6667 54.5,85C 55.6956,84.3457 55.6956,83.8457 54.5,83.5C 49.0247,85.3458 43.3581,86.0125 37.5,85.5C 39.0085,80.7989 40.8419,76.1323 43,71.5C 44.068,66.2317 43.4013,61.2317 41,56.5C 39.9148,55.7069 38.7481,55.0402 37.5,54.5C 36.5014,64.8119 36.1681,75.1452 36.5,85.5C 29.1667,85.5 21.8333,85.5 14.5,85.5C 14.8322,74.1471 14.4988,62.8138 13.5,51.5C 7.44129,50.1082 3.77462,46.4415 2.5,40.5C 7.9786,38.6919 12.3119,35.3586 15.5,30.5C 14.5383,23.8923 14.2049,17.2257 14.5,10.5C 21.5,10.5 28.5,10.5 35.5,10.5C 37.047,17.4891 41.3804,19.9891 48.5,18C 45.7737,17.8184 43.1071,17.3184 40.5,16.5C 38.9137,14.8273 38.2471,12.8273 38.5,10.5C 45.5081,9.95739 52.3414,10.6241 59,12.5C 62.2798,11.5774 65.6132,10.9107 69,10.5C 75.1883,11.4481 81.355,12.4481 87.5,13.5C 87.5,19.1667 87.5,24.8333 87.5,30.5 Z M 19.5,31.5 C 20.7733,32.0768 20.7733,32.7435 19.5,33.5C 18.537,33.0302 18.537,32.3635 19.5,31.5 Z M 66.5,58.5 C 73.0006,62.8173 72.8339,66.8173 66,70.5C 66.3533,66.5873 66.52,62.5873 66.5,58.5 Z"/></g>
<g><path style="opacity:0.89" fill="#e4e1e1" d="M 87.5,30.5 C 87.7989,32.604 87.4656,34.604 86.5,36.5C 79.5433,32.2505 72.5433,31.5838 65.5,34.5C 64.0584,32.1831 64.3918,30.0164 66.5,28C 70.8333,27.3333 75.1667,27.3333 79.5,28C 82.0336,28.5163 84.2002,29.683 86,31.5C 86.3826,30.944 86.8826,30.6107 87.5,30.5 Z"/></g>
<g><path style="opacity:0.004" fill="#d1d4d3" d="M 85.5,40.5 C 86.8333,41.1667 86.8333,41.1667 85.5,40.5 Z"/></g>
<g><path style="opacity:1" fill="#e1dede" d="M 91.5,54.5 C 96.449,63.8665 95.1157,72.3665 87.5,80C 84.89,81.4814 82.2234,82.6481 79.5,83.5C 90.1127,76.6809 94.1127,67.0142 91.5,54.5 Z"/></g>
</svg>
