<?xml version="1.0" standalone="no"?>
<!DOCTYPE svg PUBLIC "-//W3C//DTD SVG 20010904//EN"
 "http://www.w3.org/TR/2001/REC-SVG-20010904/DTD/svg10.dtd">
<svg version="1.0" xmlns="http://www.w3.org/2000/svg"
 width="1920.000000pt" height="1080.000000pt" viewBox="0 0 1920.000000 1080.000000"
 preserveAspectRatio="xMidYMid meet">

<g transform="translate(0.000000,1080.000000) scale(0.100000,-0.100000)"
fill="#000000" stroke="none">
<path d="M1908 7183 l-448 -3 0 -435 c0 -357 2 -435 13 -435 8 0 19 19 26 41
19 62 99 140 205 202 50 28 176 95 281 147 l190 95 8 65 c16 134 93 218 210
229 55 5 62 9 65 30 2 12 1 34 -2 47 -6 22 -11 24 -54 22 -26 -2 -248 -4 -494
-5z"/>
<path d="M2637 7183 c-4 -3 -7 -32 -7 -64 0 -56 1 -58 43 -88 23 -17 58 -53
77 -81 l35 -49 146 -1 145 0 30 31 c76 80 288 179 385 179 39 0 39 0 39 40 l0
40 -443 0 c-244 0 -447 -3 -450 -7z"/>
<path d="M3890 7154 c-357 -46 -603 -149 -810 -340 -304 -282 -379 -829 -164
-1195 127 -216 365 -397 691 -524 347 -135 401 -165 539 -298 102 -97 129
-152 120 -240 -8 -75 -32 -130 -86 -190 -46 -52 -82 -74 -149 -92 l-44 -11
-71 -139 c-39 -77 -93 -174 -120 -215 -62 -96 -194 -224 -281 -275 l-69 -40
104 -3 c58 -2 305 -2 550 0 l445 3 77 27 c193 67 331 150 449 267 127 128 197
249 245 426 25 90 28 116 27 260 0 121 -5 184 -21 260 -21 102 -73 240 -115
304 -13 20 -45 70 -72 111 -151 234 -423 421 -900 620 -157 65 -277 132 -319
179 -34 38 20 85 140 122 62 19 84 21 214 16 149 -6 254 -23 372 -58 89 -26
282 -104 336 -135 l42 -25 -4 428 c-2 235 -5 478 -5 540 l-1 111 -107 25
c-283 65 -391 78 -703 82 -151 2 -291 1 -310 -1z"/>
<path d="M5680 6420 l0 -630 135 0 135 0 0 538 c0 297 -3 580 -6 630 l-7 92
-128 0 -129 0 0 -630z m200 -30 l0 -540 -45 0 -45 0 0 540 0 540 45 0 45 0 0
-540z"/>
<path d="M6230 6420 l0 -630 135 0 135 0 0 390 0 390 70 0 70 0 0 -100 0 -99
103 -3 102 -3 3 -102 3 -103 99 0 100 0 0 -185 0 -185 135 0 135 0 0 630 0
630 -135 0 -135 0 0 -310 0 -311 -67 3 -68 3 -3 103 -3 102 -99 0 -100 0 0
100 0 99 -102 3 -103 3 -3 103 -3 102 -134 0 -135 0 0 -630z m210 435 l0 -75
50 0 c47 0 50 -2 50 -25 0 -23 3 -25 50 -25 l50 0 0 -45 0 -45 -100 0 -100 0
-2 -392 -3 -393 -42 -3 -43 -3 0 540 0 541 45 0 45 0 0 -75z m818 -462 l-3
-538 -42 -3 -42 -3 -3 133 c-3 129 -4 133 -25 136 -21 3 -23 9 -23 58 l0 54
-80 0 -80 0 0 45 0 45 105 0 105 0 0 305 0 305 45 0 45 0 -2 -537z m-508 157
c0 -13 -7 -20 -20 -20 -13 0 -20 7 -20 20 0 13 7 20 20 20 13 0 20 -7 20 -20z
m98 -72 c-3 -43 -3 -43 -45 -46 l-43 -3 0 45 0 46 46 0 45 0 -3 -42z m102
-133 c0 -18 -5 -25 -20 -25 -20 0 -28 28 -13 43 15 16 33 6 33 -18z"/>
<path d="M7610 6915 l0 -134 153 -3 152 -3 3 -492 2 -493 135 0 135 0 0 495 0
495 155 0 155 0 0 43 c0 24 -3 85 -6 135 l-7 92 -438 0 -439 0 0 -135z m820
-30 l0 -45 -155 0 -155 0 0 -495 0 -495 -45 0 -45 0 0 440 0 440 -25 0 c-24 0
-25 3 -25 55 l0 55 -130 0 -130 0 0 45 0 45 355 0 355 0 0 -45z"/>
<path d="M8780 6420 l0 -630 445 0 445 0 0 43 c0 24 -3 85 -6 135 l-7 92 -303
0 -304 0 0 110 0 110 205 0 205 0 0 135 0 135 -205 0 -205 0 0 115 0 115 310
0 310 0 0 43 c0 24 -3 85 -6 135 l-7 92 -438 0 -439 0 0 -630z m820 465 l0
-45 -310 0 -310 0 0 -175 0 -175 55 0 c52 0 55 -1 55 -25 l0 -25 150 0 150 0
0 -45 0 -45 -202 -2 -203 -3 0 -175 0 -175 53 -3 c48 -3 52 -5 52 -28 l0 -24
255 0 255 0 0 -45 0 -45 -355 0 -355 0 0 540 0 540 355 0 355 0 0 -45z"/>
<path d="M9957 7043 c-4 -3 -7 -287 -7 -630 l0 -623 445 0 446 0 -3 133 -3
132 -307 3 -308 2 0 495 0 495 -128 0 c-71 0 -132 -3 -135 -7z m203 -583 l0
-470 50 0 c47 0 50 -2 50 -25 l0 -25 255 0 255 0 0 -45 0 -45 -355 0 -355 0 0
540 0 540 50 0 50 0 0 -470z"/>
<path d="M11127 7043 c-4 -3 -7 -287 -7 -630 l0 -623 445 0 446 0 -3 133 -3
132 -307 3 -308 2 0 495 0 495 -128 0 c-71 0 -132 -3 -135 -7z m203 -583 l0
-470 50 0 c47 0 50 -2 50 -25 l0 -25 255 0 255 0 0 -45 0 -45 -355 0 -355 0 0
540 0 540 50 0 50 0 0 -470z"/>
<path d="M12297 7043 c-4 -3 -7 -287 -7 -630 l0 -623 445 0 446 0 -3 133 -3
132 -307 3 -308 2 0 110 0 110 205 0 205 0 0 135 0 135 -202 2 -203 3 0 110 0
110 308 3 308 2 -3 133 -3 132 -436 3 c-239 1 -439 -1 -442 -5z m813 -158 l0
-45 -305 0 -305 0 0 -175 0 -175 50 0 c47 0 50 -2 50 -25 l0 -25 155 0 155 0
0 -45 0 -45 -205 0 -205 0 0 -180 0 -180 49 0 c44 0 50 -3 53 -22 l3 -23 253
-3 252 -2 0 -45 0 -45 -350 0 -350 0 0 540 0 540 350 0 350 0 0 -45z"/>
<path d="M13670 6945 l0 -105 -100 0 -100 0 0 -425 0 -425 100 0 100 0 0 -100
0 -100 241 0 242 0 -5 100 -5 100 104 0 103 0 0 135 0 135 -135 0 -135 0 0
-100 0 -100 -170 0 -170 0 -2 335 c-1 184 -2 345 -2 358 -1 22 0 22 172 25
l172 2 0 -105 0 -105 135 0 135 0 0 135 0 135 -99 0 -99 0 -7 105 -7 105 -234
0 -234 0 0 -105z m410 -60 l0 -45 -150 0 -150 0 0 45 0 45 150 0 150 0 0 -45z
m110 -130 c0 -23 4 -25 45 -25 l45 0 0 -45 0 -45 -45 0 -45 0 0 45 c0 38 -3
45 -20 45 -15 0 -20 7 -20 25 0 18 5 25 20 25 15 0 20 -7 20 -25z m-520 -360
l0 -335 -45 0 -45 0 0 335 0 335 45 0 45 0 0 -335z m610 -290 l0 -45 -45 0
-45 0 0 45 0 45 45 0 45 0 0 -45z m-500 -135 c0 -13 -7 -20 -20 -20 -13 0 -20
7 -20 20 0 13 7 20 20 20 13 0 20 -7 20 -20z m300 -75 l0 -45 -150 0 -150 0 0
45 0 45 150 0 150 0 0 -45z"/>
<path d="M14640 6915 l0 -135 149 0 148 0 7 -37 c3 -21 6 -244 6 -495 l0 -458
135 0 135 0 0 495 0 495 150 0 150 0 0 135 0 135 -440 0 -440 0 0 -135z m818
-27 l-3 -43 -152 -3 -153 -3 0 -494 0 -495 -45 0 -45 0 0 440 0 440 -25 0
c-24 0 -25 3 -25 55 l0 55 -130 0 -130 0 0 45 0 45 356 0 355 0 -3 -42z"/>
<path d="M15810 6520 l0 -530 100 0 100 0 0 -100 0 -100 240 0 240 0 0 100 0
100 100 0 100 0 0 530 0 531 -132 -3 -133 -3 -3 -492 -2 -493 -170 0 -170 0
-2 493 -3 492 -132 3 -133 3 0 -531z m200 -25 l0 -435 -45 0 -45 0 0 435 0
435 45 0 45 0 0 -435z m620 0 l0 -435 -50 0 -50 0 0 435 0 435 50 0 50 0 0
-435z m-510 -525 c0 -13 -7 -20 -20 -20 -13 0 -20 7 -20 20 0 13 7 20 20 20
13 0 20 -7 20 -20z m300 -75 l0 -45 -150 0 -150 0 0 45 0 45 150 0 150 0 0
-45z"/>
<path d="M17180 6945 l0 -105 -100 0 -100 0 0 -525 0 -525 135 0 135 0 0 245
0 245 170 0 170 0 0 -245 0 -245 135 0 135 0 0 525 0 525 -100 0 -100 0 0 105
0 105 -240 0 -240 0 0 -105z m410 -60 l0 -45 -150 0 -150 0 0 45 0 45 150 0
150 0 0 -45z m0 -220 l0 -115 -170 0 -170 0 0 115 0 115 170 0 170 0 0 -115z
m110 90 c0 -23 3 -25 50 -25 l50 0 -2 -437 -3 -438 -47 -3 -48 -3 0 195 c0
189 -1 196 -20 196 -18 0 -20 7 -20 55 l0 55 -240 0 -240 0 0 -250 0 -250 -45
0 -45 0 0 440 0 440 45 0 45 0 0 -120 0 -120 55 0 c52 0 55 -1 55 -25 l0 -25
205 0 205 0 0 145 c0 138 -1 145 -20 145 -15 0 -20 7 -20 25 0 18 5 25 20 25
15 0 20 -7 20 -25z"/>
<path d="M18150 6420 l0 -630 445 0 445 0 0 43 c0 24 -3 85 -6 135 l-7 92
-303 0 -304 0 0 495 0 495 -135 0 -135 0 0 -630z m202 43 l3 -468 53 -3 c48
-3 52 -5 52 -28 l0 -24 255 0 255 0 0 -45 0 -45 -355 0 -355 0 0 540 0 540 45
0 45 0 2 -467z"/>
<path d="M1460 4385 l0 -805 468 0 c257 0 491 -3 520 -6 l52 -7 0 757 0 756
-32 0 c-18 0 -62 7 -98 16 -173 42 -642 94 -842 94 l-68 0 0 -805z"/>
<path d="M7170 4870 l0 -100 -105 0 -105 0 0 -174 0 -173 99 -7 c115 -9 111
-3 111 -128 l0 -78 200 0 200 0 0 -115 0 -115 -139 0 c-76 0 -153 3 -170 6
l-31 7 0 98 0 99 -135 0 -135 0 0 -135 0 -135 99 0 99 0 6 -31 c3 -17 6 -62 6
-100 l0 -69 235 0 235 0 0 100 0 100 100 0 100 0 0 175 0 175 -69 0 c-38 0
-83 3 -100 6 l-31 7 0 98 0 99 -205 0 -205 0 0 116 0 117 31 -7 c17 -3 94 -6
170 -6 l139 0 0 -100 0 -100 135 0 135 0 0 135 0 135 -100 0 -100 0 0 100 0
100 -235 0 -235 0 0 -100z m400 -50 l0 -50 -150 0 -150 0 0 50 0 50 150 0 150
0 0 -50z m110 -135 c0 -8 -9 -15 -20 -15 -11 0 -20 7 -20 15 0 8 9 15 20 15
11 0 20 -7 20 -15z m-520 -115 l0 -90 -45 0 -45 0 0 90 0 90 45 0 45 0 0 -90z
m620 45 l0 -45 -50 0 -50 0 0 45 0 45 50 0 50 0 0 -45z m-510 -220 c0 -8 -9
-15 -20 -15 -11 0 -20 7 -20 15 0 8 9 15 20 15 11 0 20 -7 20 -15z m300 -70
l0 -45 -150 0 -150 0 0 45 0 45 150 0 150 0 0 -45z m110 -130 c0 -8 -9 -15
-20 -15 -11 0 -20 7 -20 15 0 8 9 15 20 15 11 0 20 -7 20 -15z m100 -115 l0
-90 -50 0 -50 0 0 90 0 90 50 0 50 0 0 -90z m-620 -40 l0 -50 -45 0 -45 0 0
50 0 50 45 0 45 0 0 -50z m110 -135 c0 -8 -9 -15 -20 -15 -11 0 -20 7 -20 15
0 8 9 15 20 15 11 0 20 -7 20 -15z m300 -75 l0 -51 -147 3 -148 3 -3 48 -3 47
150 0 151 0 0 -50z"/>
<path d="M8130 4345 l0 -625 135 0 135 0 0 245 0 245 170 0 170 0 0 -245 0
-245 135 0 135 0 0 625 0 625 -135 0 -135 0 0 -245 0 -245 -170 0 -170 0 0
245 0 245 -135 0 -135 0 0 -625z m200 295 l0 -230 55 0 c48 0 55 -2 55 -20 0
-19 7 -20 205 -20 l205 0 0 250 0 250 45 0 45 0 0 -545 0 -545 -45 0 -45 0 0
200 c0 191 -1 200 -19 200 -17 0 -20 8 -23 48 l-3 47 -237 3 -238 2 0 -250 0
-250 -45 0 -45 0 0 545 0 545 45 0 45 0 0 -230z"/>
<path d="M9500 4870 l0 -100 -100 0 -100 0 0 -425 0 -425 100 0 100 0 0 -100
0 -100 235 0 235 0 0 100 0 100 105 0 105 0 0 348 c0 192 -3 383 -6 425 l-7
77 -98 0 -99 0 0 100 0 100 -235 0 -235 0 0 -100z m410 -50 l0 -50 -150 0
-150 0 0 50 0 50 150 0 150 0 0 -50z m-139 -120 l139 0 -2 -357 -3 -358 -120
-3 c-66 -2 -144 0 -172 3 l-53 6 0 353 c0 194 3 356 7 360 5 4 21 5 37 2 16
-3 91 -6 167 -6z m239 -15 c0 -8 -9 -15 -20 -15 -11 0 -20 7 -20 15 0 8 9 15
20 15 11 0 20 -7 20 -15z m-510 -360 l0 -335 -45 0 -45 0 0 335 0 335 45 0 45
0 0 -335z m610 0 l0 -335 -45 0 -45 0 0 335 0 335 45 0 45 0 0 -335z m-510
-420 c0 -8 -9 -15 -20 -15 -11 0 -20 7 -20 15 0 8 9 15 20 15 11 0 20 -7 20
-15z m308 -72 l-3 -48 -147 -3 -148 -3 0 51 0 50 151 0 150 0 -3 -47z"/>
<path d="M10460 4345 l0 -625 135 0 135 0 0 100 0 100 106 0 106 0 -4 103 -3
102 66 3 66 3 7 -32 c3 -17 6 -65 6 -105 l0 -74 100 0 100 0 0 -100 0 -100
135 0 135 0 0 625 0 625 -135 0 -135 0 0 -390 0 -390 -70 0 -70 0 0 185 0 185
-135 0 -135 0 0 -185 0 -185 -70 0 -70 0 0 390 0 390 -135 0 -135 0 0 -625z
m210 155 l0 -370 50 0 c43 0 50 -3 50 -20 0 -17 7 -20 50 -20 l50 0 0 -50 0
-50 -100 0 -99 0 -3 -102 -3 -103 -47 -3 -48 -3 0 545 0 546 50 0 50 0 0 -370z
m810 -175 l0 -545 -45 0 -45 0 0 55 c0 52 -1 55 -25 55 -23 0 -25 3 -25 50 l0
50 -75 0 -75 0 0 50 0 50 100 0 100 0 0 390 0 390 45 0 45 0 0 -545z m-410 -5
l0 -130 -45 0 -45 0 0 130 0 130 45 0 45 0 0 -130z m110 -210 c0 -13 -7 -20
-20 -20 -13 0 -20 7 -20 20 0 13 7 20 20 20 13 0 20 -7 20 -20z"/>
<path d="M11840 4345 l0 -625 335 0 335 0 0 100 0 100 105 0 105 0 -2 423 -3
422 -102 3 -103 3 0 99 0 100 -335 0 -335 0 0 -625z m610 475 l0 -50 -205 0
-205 0 0 -425 0 -425 50 0 c43 0 50 -3 50 -20 0 -19 7 -20 156 -20 l155 0 -3
-47 -3 -48 -247 -3 -248 -2 0 545 0 545 250 0 250 0 0 -50z m-2 -477 l-3 -358
-120 -3 c-66 -2 -144 0 -172 3 l-53 6 0 355 0 354 175 0 175 0 -2 -357z m102
342 c0 -8 -9 -15 -20 -15 -11 0 -20 7 -20 15 0 8 9 15 20 15 11 0 20 -7 20
-15z m100 -360 l0 -335 -45 0 -45 0 0 335 0 335 45 0 45 0 0 -335z"/>
<path d="M13210 4870 l0 -100 -105 0 -105 0 0 -425 0 -425 105 0 105 0 0 -100
0 -100 235 0 235 0 0 100 0 100 100 0 100 0 0 425 0 425 -100 0 -100 0 0 100
0 100 -235 0 -235 0 0 -100z m400 -50 l0 -50 -145 0 -145 0 0 50 0 50 145 0
145 0 0 -50z m0 -127 c3 -2 5 -163 5 -356 l0 -352 -130 -3 c-71 -2 -149 0
-172 3 l-43 6 0 357 0 357 167 -3 c93 -2 170 -6 173 -9z m110 -8 c0 -8 -9 -15
-20 -15 -11 0 -20 7 -20 15 0 8 9 15 20 15 11 0 20 -7 20 -15z m-510 -360 l0
-335 -50 0 -50 0 0 335 0 335 50 0 50 0 0 -335z m610 0 l0 -335 -45 0 -45 0 0
335 0 335 45 0 45 0 0 -335z m-510 -420 c0 -8 -9 -15 -20 -15 -11 0 -20 7 -20
15 0 8 9 15 20 15 11 0 20 -7 20 -15z m300 -75 l0 -50 -145 0 -145 0 0 50 0
50 145 0 145 0 0 -50z"/>
<path d="M14170 4345 l0 -625 135 0 135 0 0 100 0 100 100 0 100 0 0 105 0
105 70 0 70 0 0 -105 0 -105 105 0 105 0 0 -100 0 -100 135 0 135 0 0 548 c0
302 -3 583 -6 625 l-7 77 -128 0 -129 0 0 -390 0 -390 -70 0 -70 0 0 185 0
185 -135 0 -135 0 0 -185 0 -185 -70 0 -70 0 0 390 0 390 -135 0 -135 0 0
-625z m200 155 l0 -370 55 0 c48 0 55 -2 55 -20 0 -17 7 -20 50 -20 l50 0 0
-50 0 -49 -102 -3 -103 -3 -3 -102 -3 -103 -44 0 -45 0 0 545 0 545 45 0 45 0
0 -370z m820 -175 l0 -545 -44 0 -45 0 -3 53 c-3 45 -6 52 -25 55 -20 3 -23 9
-23 53 l0 49 -80 0 -80 0 0 50 c0 43 -3 50 -20 50 -13 0 -20 7 -20 20 0 13 7
20 20 20 13 0 20 -7 20 -20 0 -19 7 -20 105 -20 l105 0 0 390 0 390 45 0 45 0
0 -545z m-410 -5 l0 -130 -45 0 -45 0 0 130 0 130 45 0 45 0 0 -130z"/>
<path d="M15540 4345 l0 -625 135 0 135 0 0 390 0 390 70 0 70 0 0 -100 0
-100 100 0 100 0 0 -105 0 -105 105 0 105 0 0 -185 0 -185 135 0 135 0 0 548
c0 302 -3 583 -6 625 l-7 77 -128 0 -129 0 0 -305 0 -305 -70 0 -70 0 0 100 0
100 -67 0 c-38 0 -85 3 -105 6 l-38 7 0 98 0 99 -100 0 -100 0 0 100 0 100
-135 0 -135 0 0 -625z m202 443 l3 -83 53 -3 c44 -3 52 -6 52 -23 0 -16 7 -19
50 -19 l50 0 0 -45 0 -44 -102 -3 -103 -3 -3 -392 -2 -393 -45 0 -45 0 0 545
0 545 45 0 44 0 3 -82z m818 -463 l0 -545 -45 0 -44 0 -3 138 c-3 134 -4 137
-25 140 -20 3 -23 9 -23 53 l0 49 -80 0 -80 0 0 50 c0 43 -3 50 -20 50 -13 0
-20 7 -20 20 0 13 7 20 20 20 13 0 20 -7 20 -20 0 -19 7 -20 105 -20 l105 0 0
305 0 305 45 0 45 0 0 -545z m-510 160 c0 -8 -9 -15 -20 -15 -11 0 -20 7 -20
15 0 8 9 15 20 15 11 0 20 -7 20 -15z m100 -75 l0 -50 -45 0 -45 0 0 50 0 50
45 0 45 0 0 -50z"/>
</g>
</svg>
